<?xml version="1.0" encoding="UTF-8"?>
<svg width="439px" height="439px" viewBox="0 0 439 439" version="1.1" xmlns="http://www.w3.org/2000/svg" xmlns:xlink="http://www.w3.org/1999/xlink">
    <!-- Generator: Sketch 49.3 (51167) - http://www.bohemiancoding.com/sketch -->
    <title>011-sun</title>
    <desc>Created with Sketch.</desc>
    <defs></defs>
    <g id="Page-1" stroke="none" stroke-width="1" fill="none" fill-rule="evenodd">
        <g id="011-sun" fill="#FFFFFF" fill-rule="nonzero">
            <path d="M219.097,103.283 C155.238,103.283 103.284,155.236 103.284,219.096 C103.284,282.955 155.238,334.909 219.097,334.909 C282.956,334.909 334.91,282.955 334.91,219.096 C334.91,155.237 282.957,103.283 219.097,103.283 Z M219.097,319.908 C163.509,319.908 118.284,274.684 118.284,219.095 C118.284,163.507 163.509,118.282 219.097,118.282 C274.685,118.282 319.91,163.508 319.91,219.096 C319.91,274.684 274.686,319.908 219.097,319.908 Z" id="Shape"></path>
            <path d="M219.1,348.358 C214.958,348.358 211.6,351.716 211.6,355.858 L211.6,430.7 C211.6,434.842 214.958,438.2 219.1,438.2 C223.242,438.2 226.6,434.842 226.6,430.7 L226.6,355.858 C226.6,351.716 223.242,348.358 219.1,348.358 Z" id="Shape"></path>
            <path d="M219.1,89.842 C223.242,89.842 226.6,86.484 226.6,82.342 L226.6,7.5 C226.6,3.358 223.242,0 219.1,0 C214.958,0 211.6,3.358 211.6,7.5 L211.6,82.342 C211.6,86.484 214.958,89.842 219.1,89.842 Z" id="Shape"></path>
            <path d="M117.094,310.499 L64.173,363.42 C61.244,366.349 61.244,371.097 64.173,374.026 C65.637,375.491 67.557,376.223 69.476,376.223 C71.395,376.223 73.315,375.491 74.779,374.026 L127.7,321.105 C130.629,318.176 130.629,313.428 127.7,310.499 C124.773,307.57 120.024,307.57 117.094,310.499 Z" id="Shape"></path>
            <path d="M315.802,129.897 C317.721,129.897 319.641,129.165 321.105,127.7 L374.026,74.779 C376.955,71.85 376.955,67.102 374.026,64.173 C371.097,61.244 366.348,61.244 363.42,64.173 L310.499,117.094 C307.57,120.023 307.57,124.771 310.499,127.7 C311.964,129.165 313.883,129.897 315.802,129.897 Z" id="Shape"></path>
            <path d="M89.842,219.1 C89.842,214.958 86.484,211.6 82.342,211.6 L7.5,211.6 C3.358,211.6 0,214.958 0,219.1 C0,223.242 3.358,226.6 7.5,226.6 L82.342,226.6 C86.484,226.6 89.842,223.242 89.842,219.1 Z" id="Shape"></path>
            <path d="M430.7,211.6 L355.858,211.6 C351.716,211.6 348.358,214.958 348.358,219.1 C348.358,223.242 351.716,226.6 355.858,226.6 L430.7,226.6 C434.842,226.6 438.2,223.242 438.2,219.1 C438.2,214.958 434.842,211.6 430.7,211.6 Z" id="Shape"></path>
            <path d="M117.094,127.701 C118.558,129.166 120.478,129.898 122.397,129.898 C124.316,129.898 126.236,129.166 127.7,127.701 C130.629,124.772 130.629,120.024 127.7,117.095 L74.779,64.173 C71.85,61.244 67.101,61.244 64.173,64.173 C61.244,67.102 61.244,71.85 64.173,74.779 L117.094,127.701 Z" id="Shape"></path>
            <path d="M321.106,310.499 C318.177,307.57 313.428,307.57 310.5,310.499 C307.571,313.428 307.571,318.177 310.5,321.105 L363.421,374.026 C364.885,375.491 366.805,376.223 368.724,376.223 C370.643,376.223 372.563,375.491 374.027,374.026 C376.956,371.097 376.956,366.348 374.027,363.42 L321.106,310.499 Z" id="Shape"></path>
            <path d="M278.377,342.611 C276.792,338.784 272.405,336.967 268.578,338.551 C264.751,340.136 262.933,344.523 264.518,348.35 L272.237,366.989 C273.433,369.878 276.226,371.622 279.169,371.622 C280.125,371.622 281.097,371.438 282.036,371.049 C285.863,369.464 287.681,365.077 286.096,361.25 L278.377,342.611 Z" id="Shape"></path>
            <path d="M159.823,95.589 C161.019,98.478 163.812,100.221 166.755,100.221 C167.711,100.221 168.683,100.037 169.622,99.648 C173.449,98.063 175.267,93.676 173.682,89.849 L165.963,71.21 C164.378,67.383 159.992,65.565 156.164,67.15 C152.337,68.735 150.519,73.122 152.104,76.949 L159.823,95.589 Z" id="Shape"></path>
            <path d="M169.622,338.551 C165.797,336.967 161.408,338.784 159.823,342.611 L152.104,361.25 C150.519,365.077 152.337,369.464 156.164,371.049 C157.102,371.438 158.074,371.622 159.031,371.622 C161.974,371.622 164.767,369.878 165.963,366.989 L173.682,348.35 C175.266,344.523 173.448,340.136 169.622,338.551 Z" id="Shape"></path>
            <path d="M268.578,99.649 C269.516,100.038 270.488,100.222 271.445,100.222 C274.388,100.222 277.181,98.478 278.377,95.59 L286.096,76.951 C287.681,73.124 285.863,68.737 282.036,67.152 C278.211,65.568 273.821,67.385 272.237,71.212 L264.518,89.851 C262.934,93.677 264.752,98.064 268.578,99.649 Z" id="Shape"></path>
            <path d="M89.85,264.519 L71.211,272.238 C67.384,273.823 65.566,278.21 67.151,282.037 C68.347,284.926 71.14,286.669 74.083,286.669 C75.039,286.669 76.011,286.485 76.95,286.096 L95.589,278.377 C99.416,276.792 101.234,272.405 99.649,268.578 C98.064,264.751 93.678,262.934 89.85,264.519 Z" id="Shape"></path>
            <path d="M371.049,156.164 C369.464,152.337 365.077,150.519 361.25,152.104 L342.611,159.823 C338.784,161.408 336.966,165.795 338.551,169.622 C339.747,172.511 342.54,174.254 345.483,174.254 C346.439,174.254 347.411,174.07 348.35,173.681 L366.989,165.962 C370.816,164.378 372.634,159.991 371.049,156.164 Z" id="Shape"></path>
            <path d="M95.589,159.823 L76.95,152.104 C73.125,150.521 68.736,152.337 67.151,156.164 C65.566,159.991 67.384,164.378 71.211,165.963 L89.85,173.682 C90.788,174.07 91.76,174.255 92.717,174.255 C95.66,174.255 98.453,172.511 99.649,169.623 C101.234,165.794 99.416,161.407 95.589,159.823 Z" id="Shape"></path>
            <path d="M338.551,268.578 C336.966,272.405 338.784,276.792 342.611,278.377 L361.25,286.096 C362.188,286.484 363.16,286.669 364.117,286.669 C367.06,286.669 369.853,284.925 371.049,282.037 C372.634,278.21 370.816,273.823 366.989,272.238 L348.35,264.519 C344.525,262.935 340.136,264.751 338.551,268.578 Z" id="Shape"></path>
        </g>
    </g>
</svg>