<?xml version="1.0" encoding="UTF-8"?>
<svg width="305px" height="396px" viewBox="0 0 305 396" version="1.1" xmlns="http://www.w3.org/2000/svg" xmlns:xlink="http://www.w3.org/1999/xlink">
    <!-- Generator: Sketch 49.3 (51167) - http://www.bohemiancoding.com/sketch -->
    <title>012-moon-phases</title>
    <desc>Created with Sketch.</desc>
    <defs></defs>
    <g id="Page-1" stroke="none" stroke-width="1" fill="none" fill-rule="evenodd">
        <g id="012-moon-phases" fill="#FFFFFF" fill-rule="nonzero">
            <path d="M303.506,356.893 C302.647,355.385 301.342,354.286 299.85,353.671 C273.787,337.726 251.964,315.342 236.697,288.879 C220.78,261.29 212.367,229.769 212.367,197.722 C212.367,187.715 213.181,177.691 214.787,167.93 C215.459,163.843 212.691,159.984 208.604,159.312 C204.518,158.642 200.659,161.408 199.986,165.495 C198.247,176.06 197.366,186.903 197.366,197.723 C197.366,232.397 206.473,266.511 223.703,296.376 C238.302,321.681 258.44,343.537 282.39,360.182 C256.623,373.473 227.929,380.448 198.681,380.448 C97.926,380.448 15.957,298.478 15.957,197.724 C15.957,96.97 97.926,15 198.681,15 C227.925,15 256.618,21.974 282.384,35.263 C257.29,52.689 236.461,75.765 221.703,102.609 C219.707,106.239 221.032,110.799 224.662,112.795 C228.292,114.791 232.852,113.465 234.848,109.836 C250.198,81.915 272.656,58.404 299.838,41.781 C301.316,41.175 302.612,40.094 303.475,38.608 C305.527,35.071 304.368,30.542 300.869,28.426 C270.123,9.83 234.787,0 198.681,0 C89.655,0 0.957,88.697 0.957,197.723 C0.957,306.749 89.656,395.447 198.681,395.447 C234.788,395.447 270.124,385.618 300.87,367.021 C304.348,364.917 305.517,360.426 303.506,356.893 Z" id="Shape"></path>
            <path d="M217.365,130.316 C214.648,129.259 211.427,129.942 209.365,132.003 C204.726,136.638 208.138,144.813 214.665,144.813 C218.484,144.813 221.739,141.831 222.128,138.047 C222.469,134.721 220.462,131.522 217.365,130.316 Z" id="Shape"></path>
        </g>
    </g>
</svg>