<?xml version="1.0" encoding="UTF-8"?>
<svg width="407px" height="366px" viewBox="0 0 407 366" version="1.1" xmlns="http://www.w3.org/2000/svg" xmlns:xlink="http://www.w3.org/1999/xlink">
    <!-- Generator: Sketch 49.3 (51167) - http://www.bohemiancoding.com/sketch -->
    <title>009-cloudy</title>
    <desc>Created with Sketch.</desc>
    <defs></defs>
    <g id="Page-1" stroke="none" stroke-width="1" fill="none" fill-rule="evenodd">
        <g id="009-cloudy" fill="#FFFFFF" fill-rule="nonzero">
            <path d="M345.102,229.537 C344.866,212.817 338.447,197.573 328.048,185.964 C330.819,177.475 332.237,168.621 332.237,159.57 C332.237,112.64 294.061,74.46 247.136,74.46 C240.302,74.46 233.499,75.273 226.917,76.878 C222.893,77.859 220.426,81.917 221.406,85.941 C222.387,89.965 226.447,92.433 230.469,91.451 C235.889,90.13 241.496,89.46 247.135,89.46 C285.788,89.46 317.236,120.911 317.236,159.57 C317.236,164.825 316.651,169.994 315.517,175.034 C304.869,167.862 292.056,163.669 278.28,163.669 C270.039,163.669 261.864,165.205 254.217,168.157 C248.331,150.311 237.311,134.295 222.571,122.379 C205.166,108.307 183.231,100.557 160.807,100.557 C108.019,100.557 64.814,142.378 62.583,194.626 C45.785,199.603 30.66,209.661 19.523,223.367 C6.934,238.862 0,258.412 0,278.414 C0,326.587 39.192,365.779 87.365,365.779 L315.23,365.779 C354.595,365.779 386.622,333.753 386.622,294.387 C386.622,266.511 370.144,241.102 345.102,229.537 Z M315.23,350.779 L87.365,350.779 C47.463,350.779 15,318.316 15,278.414 C15,261.847 20.741,245.656 31.166,232.825 C41.447,220.171 55.82,211.272 71.636,207.767 C75.118,206.996 77.575,203.878 77.512,200.312 L77.509,200.121 C77.501,199.704 77.493,199.288 77.493,198.87 C77.493,152.93 114.868,115.556 160.807,115.556 C180.085,115.556 198.182,121.949 213.141,134.042 C227.677,145.794 237.947,162.243 242.055,180.357 C242.578,182.664 244.159,184.588 246.32,185.55 C248.483,186.512 250.968,186.398 253.033,185.242 C260.719,180.94 269.449,178.666 278.28,178.666 C306.858,178.666 330.108,201.916 330.108,230.494 C330.108,231.522 330.066,232.628 329.976,233.975 C329.755,237.287 331.738,240.35 334.849,241.506 C356.843,249.671 371.62,270.922 371.62,294.386 C371.622,325.482 346.325,350.779 315.23,350.779 Z" id="Shape"></path>
            <path d="M199.075,96.621 C199.163,96.829 199.128,96.745 199.085,96.642 C200.88,100.854 206.112,102.519 210.009,100.078 C214.053,97.545 214.582,91.816 211.305,88.44 C208.716,85.923 204.66,85.53 201.684,87.616 C198.845,89.607 197.757,93.404 199.07,96.606 C199.025,96.497 198.983,96.4 199.075,96.621 Z" id="Shape"></path>
            <path d="M247.141,59.065 C251.284,59.065 254.641,55.707 254.641,51.565 L254.641,7.966 C254.641,3.824 251.284,0.466 247.141,0.466 C242.998,0.466 239.641,3.824 239.641,7.966 L239.641,51.565 C239.641,55.707 242.999,59.065 247.141,59.065 Z" id="Shape"></path>
            <path d="M323.511,90.699 C325.43,90.699 327.35,89.967 328.814,88.502 L359.644,57.673 C362.574,54.744 362.574,49.996 359.645,47.067 C356.716,44.138 351.967,44.138 349.039,47.067 L318.209,77.896 C315.279,80.825 315.279,85.573 318.208,88.502 C319.672,89.967 321.591,90.699 323.511,90.699 Z" id="Shape"></path>
            <path d="M398.745,152.068 L355.145,152.068 C351.002,152.068 347.645,155.426 347.645,159.568 C347.645,163.71 351.002,167.068 355.145,167.068 L398.745,167.068 C402.888,167.068 406.245,163.71 406.245,159.568 C406.245,155.426 402.887,152.068 398.745,152.068 Z" id="Shape"></path>
            <path d="M165.468,88.501 C166.932,89.965 168.852,90.698 170.771,90.698 C172.69,90.698 174.61,89.966 176.074,88.501 C179.003,85.572 179.003,80.823 176.074,77.895 L145.244,47.066 C142.315,44.137 137.566,44.137 134.638,47.066 C131.709,49.995 131.709,54.744 134.638,57.672 L165.468,88.501 Z" id="Shape"></path>
        </g>
    </g>
</svg>