<?xml version="1.0" encoding="UTF-8"?>
<svg width="417px" height="349px" viewBox="0 0 417 349" version="1.1" xmlns="http://www.w3.org/2000/svg" xmlns:xlink="http://www.w3.org/1999/xlink">
    <!-- Generator: Sketch 49.3 (51167) - http://www.bohemiancoding.com/sketch -->
    <title>010-cloudy-night</title>
    <desc>Created with Sketch.</desc>
    <defs></defs>
    <g id="Page-1" stroke="none" stroke-width="1" fill="none" fill-rule="evenodd">
        <g id="010-cloudy-night" fill="#FFFFFF" fill-rule="nonzero">
            <path d="M226.25,88.438 C230.348,84.216 228.223,76.963 222.41,75.778 C216.688,74.61 211.731,80.583 214.021,85.998 C216.044,90.91 222.49,92.093 226.25,88.438 Z" id="Shape"></path>
            <path d="M214.021,85.998 C213.831,85.547 214.211,86.458 214.021,85.998 Z" id="Shape"></path>
            <path d="M413.177,125.359 C410.175,123.643 406.387,124.203 404.008,126.716 C398.51,132.527 391.971,137.115 384.567,140.355 C369.92,146.775 353.646,147.105 338.747,141.284 C323.848,135.463 312.107,124.188 305.69,109.538 C292.44,79.292 306.264,43.907 336.503,30.66 C343.903,27.421 351.716,25.725 359.724,25.618 C363.182,25.572 366.161,23.167 366.934,19.796 C367.706,16.425 366.075,12.962 362.983,11.413 C335.052,-2.577 302.631,-3.422 274.03,9.098 C251.486,18.975 233.076,36.551 222.191,58.588 C220.357,62.302 221.88,66.8 225.594,68.634 C229.309,70.47 233.807,68.944 235.64,65.231 C244.963,46.355 260.735,31.299 280.047,22.838 C296.363,15.694 314.134,13.63 331.255,16.587 C330.998,16.696 330.742,16.806 330.486,16.918 C292.669,33.485 275.381,77.734 291.949,115.555 C299.974,133.875 314.655,147.973 333.286,155.254 C351.92,162.535 372.269,162.122 390.584,154.094 C390.843,153.98 391.102,153.865 391.359,153.75 C381.927,168.346 368.36,180.011 352.044,187.161 C348.525,188.701 344.918,190.016 341.263,191.092 C332.061,165.177 307.312,146.562 278.28,146.562 C270.039,146.562 261.864,148.098 254.217,151.051 C248.331,133.205 237.311,117.188 222.572,105.273 C205.167,91.201 183.231,83.452 160.807,83.452 C108.019,83.452 64.815,125.272 62.583,177.521 C45.784,182.498 30.659,192.556 19.523,206.262 C6.934,221.76 0,241.31 0,261.312 C0,309.485 39.191,348.677 87.365,348.677 L315.229,348.677 C354.595,348.677 386.622,316.651 386.622,277.285 C386.622,249.406 370.145,223.997 345.101,212.434 C345.069,210.166 344.923,207.926 344.669,205.718 C349.214,204.42 353.697,202.814 358.062,200.904 C386.654,188.374 408.013,163.97 416.663,133.948 C417.62,130.624 416.181,127.075 413.177,125.359 Z M371.622,277.285 C371.622,308.38 346.324,333.677 315.229,333.677 L87.365,333.677 C47.463,333.677 15,301.214 15,261.312 C15,244.744 20.741,228.554 31.166,215.723 C41.447,203.069 55.819,194.17 71.636,190.665 C75.116,189.894 77.573,186.781 77.513,183.217 L77.507,182.894 C77.5,182.519 77.493,182.144 77.493,181.767 C77.493,135.828 114.868,98.453 160.807,98.453 C180.085,98.453 198.182,104.846 213.141,116.939 C227.678,128.691 237.947,145.14 242.055,163.254 C242.578,165.561 244.159,167.485 246.32,168.447 C248.482,169.409 250.969,169.295 253.033,168.139 C260.719,163.837 269.449,161.563 278.28,161.563 C306.858,161.563 330.108,184.813 330.108,213.392 C330.108,214.414 330.066,215.522 329.977,216.878 C329.758,220.189 331.741,223.249 334.85,224.403 C356.845,232.569 371.622,253.82 371.622,277.285 Z" id="Shape"></path>
        </g>
    </g>
</svg>