<?xml version="1.0" encoding="UTF-8"?>
<svg width="387px" height="266px" viewBox="0 0 387 266" version="1.1" xmlns="http://www.w3.org/2000/svg" xmlns:xlink="http://www.w3.org/1999/xlink">
    <!-- Generator: Sketch 49.3 (51167) - http://www.bohemiancoding.com/sketch -->
    <title>007-cloud</title>
    <desc>Created with Sketch.</desc>
    <defs></defs>
    <g id="Page-1" stroke="none" stroke-width="1" fill="none" fill-rule="evenodd">
        <g id="007-cloud" fill="#FFFFFF" fill-rule="nonzero">
            <path d="M345.102,129.679 C344.589,93.269 314.81,63.81 278.281,63.81 C270.04,63.81 261.865,65.347 254.218,68.299 C248.333,50.453 237.311,34.437 222.573,22.521 C205.167,8.449 183.232,0.699 160.808,0.699 C108.021,0.699 64.816,42.52 62.585,94.768 C45.785,99.745 30.661,109.802 19.524,123.51 C6.934,139.007 0,158.556 0,178.558 C0,226.732 39.191,265.924 87.365,265.924 L315.23,265.924 C354.596,265.924 386.622,233.897 386.623,194.53 C386.623,166.651 370.146,141.242 345.102,129.679 Z M315.23,250.923 L87.365,250.923 C47.463,250.923 15,218.46 15,178.558 C15,161.991 20.741,145.801 31.167,132.97 C41.449,120.315 55.822,111.416 71.637,107.912 C75.118,107.141 77.574,104.027 77.514,100.464 L77.51,100.217 C77.503,99.817 77.495,99.416 77.495,99.014 C77.495,53.075 114.869,15.7 160.808,15.7 C180.086,15.7 198.183,22.093 213.142,34.187 C227.679,45.939 237.948,62.388 242.056,80.502 C242.58,82.808 244.16,84.733 246.321,85.695 C248.484,86.657 250.97,86.543 253.034,85.387 C260.72,81.085 269.451,78.811 278.281,78.811 C306.859,78.811 330.109,102.061 330.109,130.639 C330.109,131.677 330.067,132.783 329.978,134.121 C329.757,137.432 331.74,140.496 334.851,141.651 C356.845,149.816 371.622,171.066 371.622,194.531 C371.622,225.626 346.325,250.923 315.23,250.923 Z" id="Shape"></path>
        </g>
    </g>
</svg>