<?xml version="1.0" encoding="UTF-8"?>
<svg width="459px" height="267px" viewBox="0 0 459 267" version="1.1" xmlns="http://www.w3.org/2000/svg" xmlns:xlink="http://www.w3.org/1999/xlink">
    <!-- Generator: Sketch 49.3 (51167) - http://www.bohemiancoding.com/sketch -->
    <title>008-cloudy-1</title>
    <desc>Created with Sketch.</desc>
    <defs></defs>
    <g id="Page-1" stroke="none" stroke-width="1" fill="none" fill-rule="evenodd">
        <g id="008-cloudy-1" fill="#FFFFFF" fill-rule="nonzero">
            <path d="M244.244,34.349 C244.053,33.899 244.434,34.809 244.244,34.349 Z" id="Shape"></path>
            <path d="M245.864,36.789 C250.524,41.313 258.689,38.09 258.674,31.489 C258.66,24.901 250.548,21.632 245.864,26.179 C243.783,28.323 243.067,31.568 244.244,34.349 C244.621,35.262 245.177,36.081 245.864,36.789 Z" id="Shape"></path>
            <path d="M440.698,115.035 C430.376,102.331 416.386,92.984 400.84,88.298 C398.566,39.698 358.314,0.857 309.161,0.857 C293.573,0.857 278.174,4.838 264.629,12.369 C261.009,14.382 259.706,18.949 261.718,22.569 C263.732,26.19 268.297,27.493 271.918,25.48 C283.24,19.185 296.118,15.858 309.161,15.858 C351.497,15.858 385.941,50.301 385.941,92.638 C385.941,93.076 385.932,93.513 385.922,93.951 C385.847,97.526 388.307,100.657 391.799,101.43 C406.359,104.654 419.591,112.846 429.056,124.494 C438.654,136.307 443.94,151.213 443.94,166.467 C443.94,203.201 414.054,233.087 377.32,233.087 L375.369,233.087 C382.478,221.991 386.62,208.82 386.62,194.692 C386.62,166.815 370.141,141.405 345.1,129.841 C344.587,93.431 314.808,63.972 278.279,63.972 C270.037,63.972 261.862,65.508 254.216,68.46 C248.33,50.614 237.31,34.598 222.571,22.682 C205.165,8.61 183.23,0.86 160.806,0.86 C108.018,0.86 64.813,42.68 62.582,94.929 C45.784,99.906 30.659,109.964 19.522,123.67 C6.934,139.167 0,158.717 0,178.719 C0,226.892 39.192,266.084 87.365,266.084 L315.23,266.084 C333.369,266.084 349.94,259.272 362.547,248.087 L377.321,248.087 C422.326,248.087 458.941,211.472 458.941,166.467 C458.941,147.779 452.462,129.513 440.698,115.035 Z M315.231,251.083 L87.365,251.083 L87.365,251.084 C47.463,251.084 15,218.621 15,178.719 C15,162.151 20.741,145.961 31.166,133.13 C41.447,120.476 55.819,111.577 71.636,108.073 C75.115,107.302 77.572,104.189 77.512,100.625 L77.507,100.337 C77.5,99.95 77.493,99.564 77.493,99.175 C77.493,53.235 114.868,15.861 160.807,15.861 C180.085,15.861 198.182,22.254 213.141,34.347 C227.678,46.099 237.947,62.548 242.056,80.662 C242.579,82.969 244.16,84.893 246.321,85.855 C248.481,86.816 250.969,86.703 253.034,85.547 C260.719,81.245 269.449,78.971 278.281,78.971 C306.859,78.971 330.109,102.221 330.109,130.799 C330.109,131.824 330.067,132.931 329.978,134.283 C329.758,137.594 331.74,140.656 334.852,141.811 C356.846,149.976 371.623,171.227 371.623,194.691 C371.623,225.785 346.326,251.083 315.231,251.083 Z" id="Shape"></path>
        </g>
    </g>
</svg>