<?xml version="1.0" encoding="UTF-8"?>
<svg width="388px" height="396px" viewBox="0 0 388 396" version="1.1" xmlns="http://www.w3.org/2000/svg" xmlns:xlink="http://www.w3.org/1999/xlink">
    <!-- Generator: Sketch 49.3 (51167) - http://www.bohemiancoding.com/sketch -->
    <title>006-rain</title>
    <desc>Created with Sketch.</desc>
    <defs></defs>
    <g id="Page-1" stroke="none" stroke-width="1" fill="none" fill-rule="evenodd">
        <g id="006-rain" fill="#FFFFFF" fill-rule="nonzero">
            <path d="M345.537,128.98 C345.024,92.57 315.245,63.111 278.716,63.111 C270.474,63.111 262.299,64.647 254.653,67.599 C248.767,49.753 237.747,33.737 223.008,21.821 C205.602,7.75 183.667,0 161.243,0 C108.455,0 65.251,41.82 63.019,94.069 C46.221,99.046 31.096,109.104 19.959,122.81 C7.369,138.306 0.435,157.856 0.435,177.858 C0.435,226.031 39.626,265.223 87.8,265.223 L315.665,265.223 C355.031,265.223 387.057,233.197 387.057,193.831 C387.057,165.955 370.579,140.545 345.537,128.98 Z M315.665,250.224 L87.801,250.224 C47.899,250.224 15.436,217.761 15.436,177.859 C15.436,161.291 21.177,145.101 31.602,132.27 C41.883,119.616 56.255,110.717 72.072,107.213 C75.551,106.442 78.008,103.329 77.948,99.765 L77.943,99.478 C77.936,99.091 77.929,98.704 77.929,98.315 C77.929,52.375 115.304,15.001 161.243,15.001 C180.521,15.001 198.618,21.394 213.577,33.487 C228.114,45.239 238.383,61.688 242.491,79.802 C243.014,82.109 244.595,84.033 246.756,84.995 C248.918,85.958 251.406,85.843 253.468,84.687 C261.154,80.385 269.884,78.111 278.715,78.111 C307.293,78.111 330.543,101.361 330.543,129.939 C330.543,130.964 330.501,132.071 330.412,133.423 C330.192,136.734 332.174,139.796 335.285,140.951 C357.279,149.116 372.056,170.367 372.056,193.831 C372.057,224.926 346.76,250.224 315.665,250.224 Z" id="Shape"></path>
            <path d="M64.894,275.38 C60.752,275.38 57.394,278.738 57.394,282.88 L57.394,307.626 C57.394,311.768 60.752,315.126 64.894,315.126 C69.036,315.126 72.394,311.768 72.394,307.626 L72.394,282.88 C72.394,278.738 69.036,275.38 64.894,275.38 Z" id="Shape"></path>
            <path d="M64.894,323.525 C60.752,323.525 57.394,326.883 57.394,331.025 L57.394,387.991 C57.394,392.133 60.752,395.491 64.894,395.491 C69.036,395.491 72.394,392.133 72.394,387.991 L72.394,331.025 C72.394,326.883 69.036,323.525 64.894,323.525 Z" id="Shape"></path>
            <path d="M97.105,275.38 C92.963,275.38 89.605,278.738 89.605,282.88 L89.605,387.991 C89.605,392.133 92.963,395.491 97.105,395.491 C101.247,395.491 104.605,392.133 104.605,387.991 L104.605,282.88 C104.605,278.738 101.247,275.38 97.105,275.38 Z" id="Shape"></path>
            <path d="M129.324,275.38 C125.182,275.38 121.824,278.738 121.824,282.88 L121.824,331.687 C121.824,335.829 125.182,339.187 129.324,339.187 C133.466,339.187 136.824,335.829 136.824,331.687 L136.824,282.88 C136.824,278.738 133.467,275.38 129.324,275.38 Z" id="Shape"></path>
            <path d="M129.324,346.766 C125.182,346.766 121.824,350.124 121.824,354.266 L121.824,387.992 C121.824,392.134 125.182,395.492 129.324,395.492 C133.466,395.492 136.824,392.134 136.824,387.992 L136.824,354.266 C136.824,350.124 133.467,346.766 129.324,346.766 Z" id="Shape"></path>
            <path d="M161.535,275.38 C157.393,275.38 154.035,278.738 154.035,282.88 L154.035,387.991 C154.035,392.133 157.393,395.491 161.535,395.491 C165.677,395.491 169.035,392.133 169.035,387.991 L169.035,282.88 C169.035,278.738 165.678,275.38 161.535,275.38 Z" id="Shape"></path>
            <path d="M225.958,353.463 C221.816,353.463 218.458,356.821 218.458,360.963 L218.458,387.991 C218.458,392.133 221.816,395.491 225.958,395.491 C230.1,395.491 233.458,392.133 233.458,387.991 L233.458,360.963 C233.458,356.821 230.1,353.463 225.958,353.463 Z" id="Shape"></path>
            <path d="M225.958,275.38 C221.816,275.38 218.458,278.738 218.458,282.88 L218.458,337.763 C218.458,341.905 221.816,345.263 225.958,345.263 C230.1,345.263 233.458,341.905 233.458,337.763 L233.458,282.88 C233.458,278.738 230.1,275.38 225.958,275.38 Z" id="Shape"></path>
            <path d="M193.747,275.38 C189.605,275.38 186.247,278.738 186.247,282.88 L186.247,293.363 C186.247,297.505 189.605,300.863 193.747,300.863 C197.889,300.863 201.247,297.505 201.247,293.363 L201.247,282.88 C201.247,278.738 197.889,275.38 193.747,275.38 Z" id="Shape"></path>
            <path d="M193.747,311.733 C189.605,311.733 186.247,315.091 186.247,319.233 L186.247,387.991 C186.247,392.133 189.605,395.491 193.747,395.491 C197.889,395.491 201.247,392.133 201.247,387.991 L201.247,319.233 C201.247,315.091 197.889,311.733 193.747,311.733 Z" id="Shape"></path>
            <path d="M258.169,275.38 C254.027,275.38 250.669,278.738 250.669,282.88 L250.669,324.503 C250.669,328.645 254.027,332.003 258.169,332.003 C262.311,332.003 265.669,328.645 265.669,324.503 L265.669,282.88 C265.669,278.738 262.311,275.38 258.169,275.38 Z" id="Shape"></path>
            <path d="M258.169,339.663 C254.027,339.663 250.669,343.021 250.669,347.163 L250.669,387.991 C250.669,392.133 254.027,395.491 258.169,395.491 C262.311,395.491 265.669,392.133 265.669,387.991 L265.669,347.163 C265.669,343.021 262.311,339.663 258.169,339.663 Z" id="Shape"></path>
            <path d="M290.388,275.38 C286.246,275.38 282.888,278.738 282.888,282.88 L282.888,358.745 C282.888,362.887 286.246,366.245 290.388,366.245 C294.53,366.245 297.888,362.887 297.888,358.745 L297.888,282.88 C297.888,278.738 294.531,275.38 290.388,275.38 Z" id="Shape"></path>
            <path d="M290.388,376.125 C286.246,376.125 282.888,379.483 282.888,383.625 L282.888,387.991 C282.888,392.133 286.246,395.491 290.388,395.491 C294.53,395.491 297.888,392.133 297.888,387.991 L297.888,383.625 C297.888,379.483 294.531,376.125 290.388,376.125 Z" id="Shape"></path>
            <path d="M322.599,275.38 C318.457,275.38 315.099,278.738 315.099,282.88 L315.099,387.991 C315.099,392.133 318.457,395.491 322.599,395.491 C326.741,395.491 330.099,392.133 330.099,387.991 L330.099,282.88 C330.099,278.738 326.741,275.38 322.599,275.38 Z" id="Shape"></path>
        </g>
    </g>
</svg>