<?xml version="1.0" encoding="UTF-8"?>
<svg width="407px" height="478px" viewBox="0 0 407 478" version="1.1" xmlns="http://www.w3.org/2000/svg" xmlns:xlink="http://www.w3.org/1999/xlink">
    <!-- Generator: Sketch 49.3 (51167) - http://www.bohemiancoding.com/sketch -->
    <title>004-rainy-1</title>
    <desc>Created with Sketch.</desc>
    <defs></defs>
    <g id="Page-1" stroke="none" stroke-width="1" fill="none" fill-rule="evenodd">
        <g id="004-rainy-1" fill="#FFFFFF" fill-rule="nonzero">
            <path d="M345.763,229.071 C345.527,212.351 339.108,197.107 328.709,185.498 C331.48,177.009 332.898,168.155 332.898,159.104 C332.898,112.174 294.722,73.994 247.797,73.994 C240.964,73.994 234.161,74.807 227.579,76.411 C223.555,77.391 221.087,81.449 222.067,85.474 C223.048,89.498 227.11,91.965 231.13,90.985 C236.552,89.664 242.159,88.994 247.797,88.994 C286.45,88.994 317.898,120.445 317.898,159.104 C317.898,164.358 317.313,169.528 316.179,174.568 C305.531,167.396 292.718,163.203 278.942,163.203 C270.701,163.203 262.526,164.739 254.879,167.691 C248.993,149.845 237.973,133.829 223.233,121.913 C205.828,107.841 183.893,100.091 161.469,100.091 C108.681,100.091 65.477,141.912 63.245,194.16 C46.446,199.137 31.321,209.195 20.185,222.901 C7.594,238.398 0.661,257.947 0.661,277.949 C0.661,326.122 39.852,365.314 88.025,365.314 L315.89,365.314 C355.255,365.314 387.282,333.288 387.282,293.922 C387.283,266.045 370.805,240.636 345.763,229.071 Z M315.891,350.314 L88.026,350.314 C48.125,350.314 15.662,317.851 15.662,277.949 C15.662,261.381 21.403,245.191 31.828,232.36 C42.109,219.706 56.481,210.807 72.297,207.303 C75.777,206.532 78.234,203.419 78.174,199.855 L78.17,199.607 C78.162,199.207 78.155,198.807 78.155,198.404 C78.155,152.465 115.53,115.09 161.469,115.09 C180.747,115.09 198.844,121.483 213.803,133.576 C228.339,145.328 238.609,161.777 242.717,179.891 C243.24,182.198 244.821,184.122 246.982,185.084 C249.145,186.046 251.63,185.932 253.695,184.776 C261.381,180.474 270.111,178.2 278.942,178.2 C307.52,178.2 330.77,201.45 330.77,230.028 C330.77,231.056 330.728,232.162 330.638,233.509 C330.417,236.821 332.4,239.884 335.511,241.04 C357.505,249.205 372.282,270.456 372.282,293.92 C372.283,325.017 346.985,350.314 315.891,350.314 Z" id="Shape"></path>
            <path d="M65.12,372.141 C60.977,372.141 57.62,375.499 57.62,379.641 L57.62,404.388 C57.62,408.53 60.977,411.888 65.12,411.888 C69.263,411.888 72.62,408.53 72.62,404.388 L72.62,379.641 C72.62,375.499 69.263,372.141 65.12,372.141 Z" id="Shape"></path>
            <path d="M65.12,420.286 C60.977,420.286 57.62,423.644 57.62,427.786 L57.62,470.067 C57.62,474.209 60.977,477.567 65.12,477.567 C69.263,477.567 72.62,474.209 72.62,470.067 L72.62,427.786 C72.62,423.644 69.263,420.286 65.12,420.286 Z" id="Shape"></path>
            <path d="M97.331,372.141 C93.188,372.141 89.831,375.499 89.831,379.641 L89.831,470.067 C89.831,474.209 93.188,477.567 97.331,477.567 C101.474,477.567 104.831,474.209 104.831,470.067 L104.831,379.641 C104.831,375.499 101.474,372.141 97.331,372.141 Z" id="Shape"></path>
            <path d="M129.55,372.141 C125.407,372.141 122.05,375.499 122.05,379.641 L122.05,428.448 C122.05,432.59 125.407,435.948 129.55,435.948 C133.693,435.948 137.05,432.59 137.05,428.448 L137.05,379.641 C137.05,375.499 133.693,372.141 129.55,372.141 Z" id="Shape"></path>
            <path d="M129.55,443.526 C125.407,443.526 122.05,446.884 122.05,451.026 L122.05,470.067 C122.05,474.209 125.407,477.567 129.55,477.567 C133.693,477.567 137.05,474.209 137.05,470.067 L137.05,451.026 C137.05,446.884 133.693,443.526 129.55,443.526 Z" id="Shape"></path>
            <path d="M161.761,372.141 C157.618,372.141 154.261,375.499 154.261,379.641 L154.261,470.067 C154.261,474.209 157.618,477.567 161.761,477.567 C165.904,477.567 169.261,474.209 169.261,470.067 L169.261,379.641 C169.261,375.499 165.904,372.141 161.761,372.141 Z" id="Shape"></path>
            <path d="M226.184,450.224 C222.041,450.224 218.684,453.582 218.684,457.724 L218.684,470.067 C218.684,474.209 222.041,477.567 226.184,477.567 C230.327,477.567 233.684,474.209 233.684,470.067 L233.684,457.724 C233.684,453.582 230.326,450.224 226.184,450.224 Z" id="Shape"></path>
            <path d="M226.184,372.141 C222.041,372.141 218.684,375.499 218.684,379.641 L218.684,434.524 C218.684,438.666 222.041,442.024 226.184,442.024 C230.327,442.024 233.684,438.666 233.684,434.524 L233.684,379.641 C233.684,375.499 230.326,372.141 226.184,372.141 Z" id="Shape"></path>
            <path d="M193.972,372.141 C189.829,372.141 186.472,375.499 186.472,379.641 L186.472,390.124 C186.472,394.266 189.829,397.624 193.972,397.624 C198.115,397.624 201.472,394.266 201.472,390.124 L201.472,379.641 C201.472,375.499 198.115,372.141 193.972,372.141 Z" id="Shape"></path>
            <path d="M193.972,408.494 C189.829,408.494 186.472,411.852 186.472,415.994 L186.472,470.067 C186.472,474.209 189.829,477.567 193.972,477.567 C198.115,477.567 201.472,474.209 201.472,470.067 L201.472,415.994 C201.472,411.852 198.115,408.494 193.972,408.494 Z" id="Shape"></path>
            <path d="M258.395,372.141 C254.252,372.141 250.895,375.499 250.895,379.641 L250.895,421.264 C250.895,425.406 254.252,428.764 258.395,428.764 C262.538,428.764 265.895,425.406 265.895,421.264 L265.895,379.641 C265.895,375.499 262.536,372.141 258.395,372.141 Z" id="Shape"></path>
            <path d="M258.395,436.424 C254.252,436.424 250.895,439.782 250.895,443.924 L250.895,470.067 C250.895,474.209 254.252,477.567 258.395,477.567 C262.538,477.567 265.895,474.209 265.895,470.067 L265.895,443.924 C265.895,439.782 262.536,436.424 258.395,436.424 Z" id="Shape"></path>
            <path d="M290.614,372.141 C286.471,372.141 283.114,375.499 283.114,379.641 L283.114,393.571 C283.114,397.713 286.471,401.071 290.614,401.071 C294.757,401.071 298.114,397.713 298.114,393.571 L298.114,379.641 C298.114,375.499 294.757,372.141 290.614,372.141 Z" id="Shape"></path>
            <path d="M290.614,410.95 C286.471,410.95 283.114,414.308 283.114,418.45 L283.114,470.066 C283.114,474.208 286.471,477.566 290.614,477.566 C294.757,477.566 298.114,474.208 298.114,470.066 L298.114,418.45 C298.114,414.308 294.757,410.95 290.614,410.95 Z" id="Shape"></path>
            <path d="M322.826,372.141 C318.683,372.141 315.326,375.499 315.326,379.641 L315.326,470.067 C315.326,474.209 318.683,477.567 322.826,477.567 C326.969,477.567 330.326,474.209 330.326,470.067 L330.326,379.641 C330.326,375.499 326.969,372.141 322.826,372.141 Z" id="Shape"></path>
            <path d="M202.47,99.5 C202.379,99.439 202.311,99.395 202.497,99.522 C202.681,99.643 202.615,99.598 202.526,99.538 C205.29,101.34 209.015,101.14 211.533,98.984 C213.977,96.891 214.801,93.387 213.587,90.413 C212.357,87.399 209.159,85.494 205.924,85.82 C202.918,86.123 200.339,88.253 199.473,91.143 C198.536,94.27 199.799,97.661 202.47,99.5 Z" id="Shape"></path>
            <path d="M247.802,58.599 C251.945,58.599 255.302,55.241 255.302,51.099 L255.302,7.5 C255.302,3.358 251.945,0 247.802,0 C243.659,0 240.302,3.358 240.302,7.5 L240.302,51.099 C240.302,55.241 243.659,58.599 247.802,58.599 Z" id="Shape"></path>
            <path d="M324.172,90.233 C326.091,90.233 328.011,89.501 329.476,88.036 L360.306,57.206 C363.235,54.277 363.235,49.528 360.306,46.6 C357.377,43.671 352.629,43.671 349.699,46.6 L318.869,77.43 C315.94,80.359 315.94,85.108 318.869,88.036 C320.333,89.501 322.253,90.233 324.172,90.233 Z" id="Shape"></path>
            <path d="M399.406,151.603 L355.806,151.603 C351.663,151.603 348.306,154.961 348.306,159.103 C348.306,163.245 351.663,166.603 355.806,166.603 L399.406,166.603 C403.549,166.603 406.906,163.245 406.906,159.103 C406.906,154.961 403.549,151.603 399.406,151.603 Z" id="Shape"></path>
            <path d="M166.128,88.036 C167.593,89.501 169.512,90.233 171.432,90.233 C173.351,90.233 175.271,89.501 176.736,88.036 C179.665,85.107 179.665,80.358 176.736,77.43 L145.906,46.6 C142.977,43.671 138.229,43.671 135.299,46.6 C132.37,49.529 132.37,54.278 135.299,57.206 L166.128,88.036 Z" id="Shape"></path>
        </g>
    </g>
</svg>