<?xml version="1.0" encoding="UTF-8"?>
<svg width="418px" height="473px" viewBox="0 0 418 473" version="1.1" xmlns="http://www.w3.org/2000/svg" xmlns:xlink="http://www.w3.org/1999/xlink">
    <!-- Generator: Sketch 49.3 (51167) - http://www.bohemiancoding.com/sketch -->
    <title>005-rainy</title>
    <desc>Created with Sketch.</desc>
    <defs></defs>
    <g id="Page-1" stroke="none" stroke-width="1" fill="none" fill-rule="evenodd">
        <g id="005-rainy" fill="#FFFFFF" fill-rule="nonzero">
            <path d="M216.173,88.158 C219.182,91.079 224.127,91.048 226.998,87.933 C229.705,84.995 229.537,80.385 226.784,77.549 C223.833,74.68 219.125,74.68 216.174,77.549 C214.09,79.694 213.376,82.935 214.553,85.718 C214.93,86.631 215.486,87.45 216.173,88.158 Z" id="Shape"></path>
            <path d="M214.553,85.718 C214.363,85.268 214.743,86.178 214.553,85.718 Z" id="Shape"></path>
            <path d="M413.709,125.078 C410.704,123.361 406.917,123.922 404.54,126.435 C399.041,132.246 392.502,136.834 385.098,140.075 C370.45,146.496 354.178,146.825 339.278,141.004 C324.379,135.182 312.639,123.908 306.221,109.258 C292.971,79.012 306.796,43.628 337.035,30.38 C344.434,27.142 352.247,25.445 360.255,25.339 C363.713,25.293 366.692,22.888 367.465,19.517 C368.238,16.146 366.606,12.683 363.514,11.134 C335.584,-2.857 303.162,-3.701 274.561,8.819 C252.017,18.696 233.607,36.272 222.722,58.309 C220.888,62.023 222.411,66.52 226.125,68.355 C229.84,70.19 234.337,68.666 236.171,64.952 C245.494,46.076 261.266,31.02 280.579,22.559 C296.896,15.415 314.665,13.35 331.787,16.309 C331.53,16.418 331.274,16.528 331.019,16.64 C312.7,24.665 298.602,39.346 291.324,57.977 C284.045,76.608 284.456,96.957 292.482,115.276 C300.507,133.596 315.188,147.694 333.819,154.975 C352.452,162.256 372.803,161.844 391.116,153.815 C391.375,153.702 391.633,153.587 391.89,153.471 C382.458,168.068 368.891,179.732 352.576,186.883 C349.056,188.423 345.449,189.737 341.795,190.814 C332.593,164.899 307.843,146.284 278.812,146.284 C270.571,146.284 262.396,147.82 254.749,150.772 C248.863,132.926 237.843,116.91 223.104,104.994 C205.698,90.922 183.764,83.172 161.34,83.172 C108.552,83.172 65.347,124.992 63.116,177.241 C46.318,182.218 31.193,192.276 20.056,205.982 C7.466,221.479 0.532,241.028 0.532,261.03 C0.532,309.203 39.724,348.395 87.897,348.395 L315.762,348.395 C355.128,348.395 387.154,316.369 387.154,277.003 C387.154,249.124 370.678,223.715 345.633,212.151 C345.601,209.883 345.455,207.643 345.201,205.435 C349.745,204.137 354.228,202.531 358.592,200.621 C387.185,188.091 408.544,163.686 417.194,133.665 C418.153,130.342 416.713,126.795 413.709,125.078 Z M372.154,277.004 C372.154,308.098 346.857,333.396 315.762,333.396 L87.897,333.396 C47.995,333.396 15.532,300.933 15.532,261.031 C15.532,244.463 21.273,228.273 31.698,215.442 C41.979,202.788 56.352,193.889 72.168,190.385 C75.65,189.614 78.107,186.496 78.044,182.93 L78.041,182.737 C78.033,182.32 78.025,181.904 78.025,181.487 C78.025,135.547 115.4,98.173 161.339,98.173 C180.617,98.173 198.714,104.566 213.672,116.659 C228.209,128.411 238.478,144.86 242.586,162.974 C243.109,165.281 244.69,167.205 246.851,168.167 C249.011,169.129 251.5,169.015 253.563,167.859 C261.249,163.557 269.979,161.283 278.81,161.283 C307.388,161.283 330.638,184.533 330.638,213.111 C330.638,214.141 330.596,215.248 330.507,216.595 C330.287,219.906 332.269,222.968 335.381,224.123 C357.376,232.288 372.154,253.539 372.154,277.004 Z" id="Shape"></path>
            <path d="M64.99,366.594 C60.848,366.594 57.49,369.952 57.49,374.094 L57.49,398.84 C57.49,402.982 60.848,406.34 64.99,406.34 C69.132,406.34 72.49,402.982 72.49,398.84 L72.49,374.094 C72.49,369.952 69.132,366.594 64.99,366.594 Z" id="Shape"></path>
            <path d="M64.99,414.739 C60.848,414.739 57.49,418.097 57.49,422.239 L57.49,464.52 C57.49,468.662 60.848,472.02 64.99,472.02 C69.132,472.02 72.49,468.662 72.49,464.52 L72.49,422.239 C72.49,418.097 69.132,414.739 64.99,414.739 Z" id="Shape"></path>
            <path d="M97.201,366.594 C93.059,366.594 89.701,369.952 89.701,374.094 L89.701,464.52 C89.701,468.662 93.059,472.02 97.201,472.02 C101.343,472.02 104.701,468.662 104.701,464.52 L104.701,374.094 C104.701,369.952 101.343,366.594 97.201,366.594 Z" id="Shape"></path>
            <path d="M129.421,366.594 C125.279,366.594 121.921,369.952 121.921,374.094 L121.921,422.901 C121.921,427.043 125.279,430.401 129.421,430.401 C133.563,430.401 136.921,427.043 136.921,422.901 L136.921,374.094 C136.921,369.952 133.563,366.594 129.421,366.594 Z" id="Shape"></path>
            <path d="M129.421,437.979 C125.279,437.979 121.921,441.337 121.921,445.479 L121.921,464.52 C121.921,468.662 125.279,472.02 129.421,472.02 C133.563,472.02 136.921,468.662 136.921,464.52 L136.921,445.479 C136.921,441.337 133.563,437.979 129.421,437.979 Z" id="Shape"></path>
            <path d="M161.632,366.594 C157.49,366.594 154.132,369.952 154.132,374.094 L154.132,464.52 C154.132,468.662 157.49,472.02 161.632,472.02 C165.774,472.02 169.132,468.662 169.132,464.52 L169.132,374.094 C169.132,369.952 165.774,366.594 161.632,366.594 Z" id="Shape"></path>
            <path d="M226.054,444.676 C221.912,444.676 218.554,448.034 218.554,452.176 L218.554,464.519 C218.554,468.661 221.912,472.019 226.054,472.019 C230.196,472.019 233.554,468.661 233.554,464.519 L233.554,452.176 C233.554,448.034 230.196,444.676 226.054,444.676 Z" id="Shape"></path>
            <path d="M226.054,366.594 C221.912,366.594 218.554,369.952 218.554,374.094 L218.554,428.977 C218.554,433.119 221.912,436.477 226.054,436.477 C230.196,436.477 233.554,433.119 233.554,428.977 L233.554,374.094 C233.554,369.952 230.196,366.594 226.054,366.594 Z" id="Shape"></path>
            <path d="M193.843,366.594 C189.701,366.594 186.343,369.952 186.343,374.094 L186.343,384.577 C186.343,388.719 189.701,392.077 193.843,392.077 C197.985,392.077 201.343,388.719 201.343,384.577 L201.343,374.094 C201.343,369.952 197.985,366.594 193.843,366.594 Z" id="Shape"></path>
            <path d="M193.843,402.946 C189.701,402.946 186.343,406.304 186.343,410.446 L186.343,464.519 C186.343,468.661 189.701,472.019 193.843,472.019 C197.985,472.019 201.343,468.661 201.343,464.519 L201.343,410.446 C201.343,406.304 197.985,402.946 193.843,402.946 Z" id="Shape"></path>
            <path d="M258.265,366.594 C254.123,366.594 250.765,369.952 250.765,374.094 L250.765,415.717 C250.765,419.859 254.123,423.217 258.265,423.217 C262.407,423.217 265.765,419.859 265.765,415.717 L265.765,374.094 C265.765,369.952 262.407,366.594 258.265,366.594 Z" id="Shape"></path>
            <path d="M258.265,430.877 C254.123,430.877 250.765,434.235 250.765,438.377 L250.765,464.52 C250.765,468.662 254.123,472.02 258.265,472.02 C262.407,472.02 265.765,468.662 265.765,464.52 L265.765,438.377 C265.765,434.235 262.407,430.877 258.265,430.877 Z" id="Shape"></path>
            <path d="M290.485,366.594 C286.343,366.594 282.985,369.952 282.985,374.094 L282.985,388.024 C282.985,392.166 286.343,395.524 290.485,395.524 C294.627,395.524 297.985,392.166 297.985,388.024 L297.985,374.094 C297.985,369.952 294.627,366.594 290.485,366.594 Z" id="Shape"></path>
            <path d="M290.485,405.403 C286.343,405.403 282.985,408.761 282.985,412.903 L282.985,464.52 C282.985,468.662 286.343,472.02 290.485,472.02 C294.627,472.02 297.985,468.662 297.985,464.52 L297.985,412.903 C297.985,408.761 294.627,405.403 290.485,405.403 Z" id="Shape"></path>
            <path d="M322.696,366.594 C318.554,366.594 315.196,369.952 315.196,374.094 L315.196,464.52 C315.196,468.662 318.554,472.02 322.696,472.02 C326.838,472.02 330.196,468.662 330.196,464.52 L330.196,374.094 C330.196,369.952 326.838,366.594 322.696,366.594 Z" id="Shape"></path>
        </g>
    </g>
</svg>