<?xml version="1.0" encoding="UTF-8"?>
<svg width="387px" height="421px" viewBox="0 0 387 421" version="1.1" xmlns="http://www.w3.org/2000/svg" xmlns:xlink="http://www.w3.org/1999/xlink">
    <!-- Generator: Sketch 49.3 (51167) - http://www.bohemiancoding.com/sketch -->
    <title>003-storm</title>
    <desc>Created with Sketch.</desc>
    <defs></defs>
    <g id="Page-1" stroke="none" stroke-width="1" fill="none" fill-rule="evenodd">
        <g id="003-storm" fill="#000000" fill-rule="nonzero">
            <path d="M345.302,128.982 C344.788,92.577 315.01,63.12 278.479,63.12 C270.233,63.12 262.058,64.655 254.415,67.606 C248.527,49.758 237.507,33.74 222.77,21.824 C205.365,7.751 183.431,0 161.01,0 C108.219,0 65.011,41.819 62.78,94.071 C45.981,99.05 30.859,109.108 19.723,122.813 C7.132,138.309 0.199,157.858 0.199,177.86 C0.199,226.036 39.388,265.23 87.559,265.23 L152.799,265.23 C156.942,265.23 160.299,261.872 160.299,257.73 C160.299,253.588 156.942,250.23 152.799,250.23 L87.559,250.23 C47.66,250.23 15.199,217.765 15.199,177.86 C15.199,161.293 20.94,145.102 31.365,132.272 C41.645,119.619 56.017,110.72 71.834,107.212 C75.323,106.438 77.782,103.309 77.708,99.735 C77.698,99.266 77.689,98.797 77.689,98.32 C77.689,52.377 115.066,15 161.009,15 C180.285,15 198.38,21.393 213.338,33.488 C227.873,45.242 238.143,61.693 242.254,79.81 C242.778,82.117 244.359,84.042 246.521,85.003 C248.682,85.963 251.169,85.851 253.235,84.693 C260.911,80.393 269.64,78.12 278.479,78.12 C307.058,78.12 330.309,101.366 330.309,129.94 C330.309,130.984 330.266,132.116 330.176,133.402 C329.947,136.72 331.93,139.794 335.048,140.951 C357.041,149.117 371.819,170.371 371.819,193.84 C371.819,224.933 346.523,250.23 315.429,250.23 L278.833,250.23 L303.763,207.586 C305.119,205.267 305.131,202.399 303.793,200.068 C302.456,197.737 299.975,196.3 297.288,196.3 L216.232,196.3 C213.014,196.3 210.155,198.353 209.126,201.402 L174.387,304.33 C173.615,306.619 173.992,309.14 175.401,311.102 C176.81,313.064 179.078,314.228 181.494,314.228 L209.284,314.228 L173.18,410.892 C171.902,414.314 173.276,418.16 176.434,419.998 C177.614,420.685 178.913,421.017 180.203,421.017 C182.363,421.017 184.49,420.084 185.959,418.329 L291.461,292.242 C293.33,290.008 293.737,286.894 292.504,284.255 C291.272,281.616 288.622,279.929 285.709,279.929 L261.469,279.929 L270.063,265.229 L315.428,265.229 C354.792,265.229 386.818,233.204 386.818,193.839 C386.819,165.96 370.344,140.548 345.302,128.982 Z M241.924,283.645 C240.568,285.964 240.556,288.832 241.894,291.163 C243.231,293.494 245.712,294.931 248.399,294.931 L269.654,294.931 L202.553,375.124 L227.118,309.353 C227.977,307.05 227.655,304.472 226.253,302.453 C224.852,300.433 222.55,299.229 220.092,299.229 L191.942,299.229 L221.618,211.301 L284.217,211.301 L241.924,283.645 Z" id="Shape"></path>
            <path d="M180.602,264.088 C185.477,259.206 181.408,250.693 174.598,251.318 C171.328,251.618 168.592,254.107 167.942,257.318 C167.309,260.446 168.826,263.732 171.596,265.297 C174.492,266.934 178.244,266.446 180.602,264.088 Z" id="Shape"></path>
            <path d="M180.602,264.088 C179.213,265.478 180.952,263.738 180.602,264.088 Z" id="Shape"></path>
        </g>
    </g>
</svg>