<?xml version="1.0" encoding="UTF-8"?>
<svg width="407px" height="367px" viewBox="0 0 407 367" version="1.1" xmlns="http://www.w3.org/2000/svg" xmlns:xlink="http://www.w3.org/1999/xlink">
    <!-- Generator: Sketch 49.3 (51167) - http://www.bohemiancoding.com/sketch -->
    <title>001-snowflake</title>
    <desc>Created with Sketch.</desc>
    <defs></defs>
    <g id="Page-1" stroke="none" stroke-width="1" fill="none" fill-rule="evenodd">
        <g id="001-snowflake" transform="translate(0.000000, -1.000000)" fill="#000000" fill-rule="nonzero">
            <path d="M399.4,176.95 L343.477,176.95 L375.059,122.253 C377.13,118.666 375.901,114.079 372.314,112.008 C368.727,109.937 364.14,111.166 362.069,114.753 L326.157,176.95 L239.402,176.95 C237.788,169.111 233.696,162.166 227.984,156.973 L271.302,81.939 L343.117,81.939 C347.259,81.939 350.617,78.581 350.617,74.439 C350.617,70.297 347.259,66.939 343.117,66.939 L279.961,66.939 L307.926,18.5 C309.997,14.913 308.768,10.326 305.181,8.255 C301.592,6.184 297.006,7.413 294.936,11.001 L266.971,59.44 L235.39,4.735 C233.319,1.148 228.732,-0.081 225.145,1.989 C221.558,4.06 220.329,8.647 222.4,12.234 L258.311,74.439 L215.075,149.331 C211.294,148.03 207.244,147.314 203.027,147.314 C199.077,147.314 195.272,147.94 191.698,149.087 L148.598,74.434 L184.505,12.24 C186.576,8.653 185.347,4.066 181.76,1.995 C178.172,-0.077 173.586,1.153 171.515,4.74 L139.938,59.433 L111.975,10.999 C109.904,7.411 105.317,6.183 101.73,8.254 C98.143,10.325 96.914,14.912 98.985,18.499 L126.948,66.934 L63.781,66.932 C59.639,66.932 56.281,70.29 56.281,74.432 C56.281,78.574 59.638,81.932 63.781,81.932 L135.609,81.935 L178.644,156.476 C172.636,161.719 168.319,168.854 166.652,176.95 L80.749,176.95 L44.84,114.753 C42.769,111.166 38.182,109.937 34.595,112.008 C31.008,114.079 29.779,118.666 31.85,122.253 L63.43,176.95 L7.5,176.95 C3.358,176.95 0,180.308 0,184.45 C0,188.592 3.358,191.95 7.5,191.95 L63.425,191.95 L31.842,246.649 C29.771,250.236 31,254.823 34.587,256.894 C35.768,257.576 37.058,257.9 38.33,257.9 C40.922,257.9 43.443,256.555 44.832,254.149 L80.745,191.95 L166.651,191.95 C168.318,200.046 172.634,207.181 178.642,212.425 L135.608,286.963 L63.785,286.963 C59.643,286.963 56.285,290.321 56.285,294.463 C56.285,298.605 59.643,301.963 63.785,301.963 L126.95,301.963 L98.986,350.4 C96.915,353.987 98.144,358.574 101.731,360.645 C102.912,361.327 104.202,361.651 105.474,361.651 C108.066,361.651 110.587,360.306 111.976,357.9 L139.936,309.47 L171.513,364.166 C172.902,366.572 175.423,367.917 178.015,367.917 C179.287,367.917 180.577,367.593 181.758,366.911 C185.345,364.84 186.574,360.253 184.503,356.666 L148.596,294.469 L191.698,219.812 C195.272,220.96 199.077,221.586 203.028,221.586 C207.245,221.586 211.296,220.87 215.077,219.569 L258.31,294.456 L222.397,356.66 C220.326,360.247 221.555,364.834 225.142,366.905 C226.323,367.587 227.613,367.911 228.885,367.911 C231.477,367.911 233.998,366.566 235.387,364.16 L266.97,309.457 L294.936,357.899 C296.325,360.305 298.846,361.65 301.438,361.65 C302.71,361.65 304,361.326 305.181,360.644 C308.768,358.573 309.997,353.986 307.926,350.399 L279.965,301.966 L343.12,301.968 C347.262,301.968 350.62,298.61 350.62,294.468 C350.62,290.326 347.263,286.968 343.12,286.968 L271.304,286.965 L227.984,211.927 C233.696,206.734 237.788,199.788 239.402,191.949 L326.151,191.949 L362.062,254.148 C363.451,256.554 365.972,257.899 368.564,257.899 C369.836,257.899 371.126,257.575 372.307,256.893 C375.894,254.822 377.123,250.235 375.052,246.648 L343.471,191.949 L399.4,191.949 C403.542,191.949 406.9,188.591 406.9,184.449 C406.9,180.307 403.542,176.95 399.4,176.95 Z M225.162,184.489 C225.141,196.678 215.22,206.588 203.027,206.588 C190.821,206.587 180.89,196.657 180.89,184.451 C180.89,172.245 190.821,162.315 203.027,162.315 C215.22,162.315 225.141,172.224 225.162,184.412 C225.162,184.425 225.16,184.437 225.16,184.45 C225.16,184.463 225.162,184.476 225.162,184.489 Z" id="Shape"></path>
        </g>
    </g>
</svg>