<?xml version="1.0" encoding="UTF-8"?>
<svg width="322px" height="408px" viewBox="0 0 322 408" version="1.1" xmlns="http://www.w3.org/2000/svg" xmlns:xlink="http://www.w3.org/1999/xlink">
    <!-- Generator: Sketch 49.3 (51167) - http://www.bohemiancoding.com/sketch -->
    <title>002-tornado</title>
    <desc>Created with Sketch.</desc>
    <defs></defs>
    <g id="Page-1" stroke="none" stroke-width="1" fill="none" fill-rule="evenodd">
        <g id="002-tornado" fill="#000000" fill-rule="nonzero">
            <path d="M184.265,393.001 L166.062,393.001 C161.919,393.001 158.562,396.359 158.562,400.501 C158.562,404.643 161.919,408.001 166.062,408.001 L184.265,408.001 C188.408,408.001 191.765,404.643 191.765,400.501 C191.765,396.359 188.407,393.001 184.265,393.001 Z" id="Shape"></path>
            <path d="M212.76,349.335 L151.793,349.335 C147.65,349.335 144.293,352.693 144.293,356.835 C144.293,360.977 147.65,364.335 151.793,364.335 L212.76,364.335 C216.903,364.335 220.26,360.977 220.26,356.835 C220.26,352.693 216.903,349.335 212.76,349.335 Z" id="Shape"></path>
            <path d="M267.62,305.668 L150.379,305.668 C146.236,305.668 142.879,309.026 142.879,313.168 C142.879,317.31 146.236,320.668 150.379,320.668 L267.62,320.668 C271.763,320.668 275.12,317.31 275.12,313.168 C275.12,309.026 271.763,305.668 267.62,305.668 Z" id="Shape"></path>
            <path d="M314.403,218.335 L95.14,218.335 C90.997,218.335 87.64,221.693 87.64,225.835 C87.64,229.977 90.997,233.335 95.14,233.335 L314.403,233.335 C318.546,233.335 321.903,229.977 321.903,225.835 C321.903,221.693 318.545,218.335 314.403,218.335 Z" id="Shape"></path>
            <path d="M316.386,182.168 C316.386,178.026 313.029,174.668 308.886,174.668 L49.114,174.668 C44.971,174.668 41.614,178.026 41.614,182.168 C41.614,186.31 44.971,189.668 49.114,189.668 L308.885,189.668 C313.029,189.668 316.386,186.31 316.386,182.168 Z" id="Shape"></path>
            <path d="M303.35,138.501 C303.35,134.359 299.993,131.001 295.85,131.001 L21.487,131.001 C17.344,131.001 13.987,134.359 13.987,138.501 C13.987,142.643 17.344,146.001 21.487,146.001 L295.85,146.001 C299.992,146.001 303.35,142.643 303.35,138.501 Z" id="Shape"></path>
            <path d="M11.458,58.668 L267.85,58.668 C271.993,58.668 275.35,55.31 275.35,51.168 C275.35,47.026 271.993,43.668 267.85,43.668 L11.458,43.668 C7.315,43.668 3.958,47.026 3.958,51.168 C3.958,55.31 7.316,58.668 11.458,58.668 Z" id="Shape"></path>
            <path d="M204.006,94.835 C204.006,90.693 200.649,87.335 196.506,87.335 L7.598,87.335 C3.455,87.335 0.098,90.693 0.098,94.835 C0.098,98.977 3.455,102.335 7.598,102.335 L196.506,102.335 C200.649,102.335 204.006,98.977 204.006,94.835 Z" id="Shape"></path>
            <path d="M287.028,87.335 L240.906,87.335 C236.763,87.335 233.406,90.693 233.406,94.835 C233.406,98.977 236.763,102.335 240.906,102.335 L287.028,102.335 C291.171,102.335 294.528,98.977 294.528,94.835 C294.528,90.693 291.17,87.335 287.028,87.335 Z" id="Shape"></path>
            <path d="M213.683,100.14 C217.798,104.132 224.829,102.232 226.261,96.658 C227.604,91.425 222.82,86.432 217.541,87.478 C217.908,87.405 219.533,87.077 217.523,87.48 C217.453,87.495 217.461,87.493 217.509,87.484 C211.72,88.701 209.585,95.921 213.683,100.14 Z" id="Shape"></path>
            <path d="M25.88,15.001 L63.405,15.001 C67.548,15.001 70.905,11.643 70.905,7.501 C70.905,3.359 67.548,0.001 63.405,0.001 L25.88,0.001 C21.737,0.001 18.38,3.359 18.38,7.501 C18.38,11.643 21.737,15.001 25.88,15.001 Z" id="Shape"></path>
            <path d="M105.905,15.001 L286.86,15.001 C291.003,15.001 294.36,11.643 294.36,7.501 C294.36,3.359 291.003,0.001 286.86,0.001 L105.905,0.001 C101.762,0.001 98.405,3.359 98.405,7.501 C98.405,11.643 101.763,15.001 105.905,15.001 Z" id="Shape"></path>
            <path d="M80.428,13.72 C80.336,13.659 80.265,13.612 80.453,13.74 C80.637,13.862 80.571,13.816 80.481,13.756 C83.148,15.499 86.753,15.379 89.26,13.389 C91.859,11.326 92.814,7.703 91.543,4.63 C90.348,1.742 87.376,-0.144 84.25,0.009 C81.214,0.158 78.517,2.202 77.526,5.066 C76.422,8.255 77.668,11.818 80.428,13.72 Z" id="Shape"></path>
            <path d="M187.205,269.501 C187.205,265.359 183.848,262.001 179.705,262.001 L130.775,262.001 C126.632,262.001 123.275,265.359 123.275,269.501 C123.275,273.643 126.632,277.001 130.775,277.001 L179.705,277.001 C183.848,277.001 187.205,273.643 187.205,269.501 Z" id="Shape"></path>
            <path d="M300.876,262.001 L226.49,262.001 C222.347,262.001 218.99,265.359 218.99,269.501 C218.99,273.643 222.347,277.001 226.49,277.001 L300.876,277.001 C305.019,277.001 308.376,273.643 308.376,269.501 C308.376,265.359 305.019,262.001 300.876,262.001 Z" id="Shape"></path>
            <path d="M208.93,274.46 C210.971,272.142 211.382,268.693 209.918,265.966 C208.407,263.15 205.179,261.564 202.025,262.117 C198.859,262.673 196.377,265.229 195.887,268.402 C195.372,271.741 197.284,275.058 200.358,276.395 C200.287,276.367 200.263,276.359 200.433,276.43 C200.629,276.507 200.574,276.483 200.484,276.446 C203.432,277.576 206.823,276.852 208.93,274.46 Z" id="Shape"></path>
        </g>
    </g>
</svg>